# This file uses centimeters as units for non-parametric coordinates.

mtllib DoorLock.mtl
g default
v -3.075352 2.866713 0.750075
v -2.545075 2.647065 0.750075
v -2.545075 2.866713 1.280352
v -2.545075 3.396990 1.500000
v -3.075352 3.396990 1.280352
v -3.295000 3.396990 0.750075
v 3.075352 2.866713 0.750075
v 3.295000 3.396990 0.750075
v 3.075352 3.396990 1.280352
v 2.545075 3.396990 1.500000
v 2.545075 2.866713 1.280352
v 2.545075 2.647065 0.750075
v -3.075352 14.537417 0.750075
v -3.295000 14.007140 0.750075
v -3.075352 14.007140 1.280352
v -2.545075 14.007140 1.500000
v -2.545075 14.537417 1.280352
v -2.545075 14.757064 0.750075
v 3.075352 14.537417 0.750075
v 2.545075 14.757064 0.750075
v 2.545075 14.537417 1.280352
v 2.545075 14.007140 1.500000
v 3.075352 14.007140 1.280352
v 3.295000 14.007140 0.750075
v -3.295000 14.007140 -1.500000
v -3.075352 14.537417 -1.500000
v -2.545075 14.757064 -1.500000
v 2.545075 14.757064 -1.500000
v 3.075352 14.537417 -1.500000
v 3.295000 14.007140 -1.500000
v -2.545075 2.647065 -1.500000
v -3.075352 2.866713 -1.500000
v -3.295000 3.396990 -1.500000
v 3.295000 3.396990 -1.500000
v 3.075352 2.866713 -1.500000
v 2.545075 2.647065 -1.500000
v -2.977893 2.964172 1.182893
v 2.977893 2.964172 1.182893
v -2.977893 14.439958 1.182893
v 2.977893 14.439958 1.182893
v -3.295000 8.702065 -1.500000
v -3.295000 8.702065 0.750075
v -3.075352 8.702065 1.280352
v -2.545075 8.702065 1.500000
v 2.545075 8.702065 1.500000
v 3.075352 8.702065 1.280352
v 3.295000 8.702065 0.750075
v 3.295000 8.702065 -1.500000
v 0.000000 14.757064 -1.500000
v 0.000000 14.757064 0.750075
v 0.000000 14.537417 1.280352
v 0.000000 14.007140 1.500000
v 0.000000 3.396990 1.500000
v 0.000000 2.866713 1.280352
v 0.000000 2.647065 0.750075
v 0.000000 2.647065 -1.500000
v -3.295000 11.354602 -1.500000
v -3.295000 11.354602 0.750075
v -3.075352 11.354602 1.280352
v -2.545075 11.354602 1.500000
v 0.000000 11.354602 1.500000
v 2.545075 11.354602 1.500000
v 3.075352 11.354602 1.280352
v 3.295000 11.354602 0.750075
v 3.295000 11.354602 -1.500000
v -3.295000 12.680871 -1.500000
v -3.295000 12.680871 0.750075
v -3.075352 12.680871 1.280352
v -2.545075 12.680871 1.500000
v 0.000000 12.680871 1.500000
v 2.545075 12.680871 1.500000
v 3.075352 12.680871 1.280352
v 3.295000 12.680871 0.750075
v 3.295000 12.680871 -1.500000
v 3.295000 10.028333 -1.500000
v 3.295000 10.028333 0.750075
v 3.075352 10.028333 1.280352
v 2.545075 10.028333 1.500000
v -2.545075 10.028333 1.500000
v -3.075352 10.028333 1.280352
v -3.295000 10.028333 0.750075
v -3.295000 10.028333 -1.500000
v 3.295000 6.049528 -1.500000
v 3.295000 6.049528 0.750075
v 3.075352 6.049528 1.280352
v 2.545075 6.049528 1.500000
v -2.545075 6.049528 1.500000
v -3.075352 6.049528 1.280352
v -3.295000 6.049528 0.750075
v -3.295000 6.049528 -1.500000
v -3.295000 7.375796 -1.500000
v -3.295000 7.375796 0.750075
v -3.075352 7.375796 1.280352
v -2.545075 7.375796 1.500000
v 2.545075 7.375796 1.500000
v 3.075352 7.375796 1.280352
v 3.295000 7.375796 0.750075
v 3.295000 7.375796 -1.500000
v 3.295000 4.723259 -1.500000
v 3.295000 4.723259 0.750075
v 3.075352 4.723259 1.280352
v 2.545075 4.723259 1.500000
v -2.545075 4.723259 1.500000
v -3.075352 4.723259 1.280352
v -3.295000 4.723259 0.750075
v -3.295000 4.723259 -1.500000
v 0.000000 14.007140 1.316062
v 0.000000 12.680871 1.316062
v 2.545075 12.680871 1.316062
v 2.545075 14.007140 1.316062
v -2.545075 12.680871 1.316062
v -2.545075 14.007140 1.316062
v 2.545075 4.723259 1.316062
v -0.000000 4.723259 1.316062
v -0.000000 3.396990 1.316062
v 2.545075 3.396990 1.316062
v -2.545075 3.396990 1.316062
v -2.545075 4.723259 1.316062
v -2.545075 8.702065 1.316062
v -0.000000 8.702065 1.316062
v -0.000000 10.028333 1.316062
v -2.545075 10.028333 1.316062
v 2.545075 10.028333 1.316062
v 2.545075 8.702065 1.316062
v -0.000000 11.354602 1.316062
v 2.545075 11.354602 1.316062
v -2.545075 11.354602 1.316062
v -0.000000 7.375796 1.316062
v 2.545075 7.375796 1.316062
v -2.545075 7.375796 1.316062
v -0.000000 6.049528 1.316062
v -2.545075 6.049528 1.316062
v 2.545075 6.049528 1.316062
vt 0.072148 0.161902
vt 0.252201 0.146793
vt 0.259684 0.206321
vt 0.557324 0.149479
vt 0.574080 0.026688
vt 0.609536 0.194492
vt 0.232861 0.978835
vt 0.259885 0.792287
vt 0.543946 0.793303
vt 0.604087 0.804858
vt 0.730959 0.832013
vt 0.548544 0.209468
vt 0.250433 0.850739
vt 0.553294 0.852128
vt 0.570830 0.979624
vt 0.238300 0.018146
vt 0.740550 0.164578
vt 0.199054 0.191570
vt 0.200300 0.803162
vt 0.070694 0.830079
vt 0.216675 0.159722
vt 0.257841 0.176252
vt 0.228154 0.201563
vt 0.592053 0.162441
vt 0.579990 0.204174
vt 0.550756 0.178924
vt 0.216149 0.836606
vt 0.229449 0.794882
vt 0.257268 0.822106
vt 0.588151 0.837793
vt 0.546701 0.823067
vt 0.575047 0.796176
vt 0.197376 0.971336
vt 0.720407 0.864596
vt 0.084000 0.129566
vt 0.609524 0.033505
vt 0.233666 0.178672
vt 0.574809 0.181388
vt 0.233545 0.818432
vt 0.570645 0.819608
vt 0.023908 0.499284
vt 0.160880 0.496464
vt 0.196266 0.495630
vt 0.231903 0.494718
vt 0.573743 0.495246
vt 0.609454 0.496559
vt 0.644804 0.497904
vt 0.781259 0.501783
vt 0.401911 0.992164
vt 0.401787 0.869753
vt 0.402042 0.837700
vt 0.402434 0.805808
vt 0.402804 0.493351
vt 0.404446 0.198277
vt 0.404982 0.166156
vt 0.405353 0.134013
vt 0.407610 0.007852
vt 0.038830 0.668544
vt 0.174679 0.650016
vt 0.210460 0.645794
vt 0.246863 0.641151
vt 0.401373 0.642573
vt 0.559455 0.643749
vt 0.594910 0.647266
vt 0.630210 0.651527
vt 0.765624 0.669979
vt 0.052212 0.750226
vt 0.184263 0.725958
vt 0.217476 0.720054
vt 0.250575 0.715191
vt 0.402957 0.710450
vt 0.552599 0.717548
vt 0.586320 0.721771
vt 0.619979 0.727526
vt 0.751788 0.752114
vt 0.775716 0.586768
vt 0.640114 0.575001
vt 0.605489 0.571668
vt 0.571209 0.567654
vt 0.402851 0.562738
vt 0.233958 0.567356
vt 0.199457 0.570494
vt 0.164764 0.573491
vt 0.028742 0.584673
vt 0.775434 0.330368
vt 0.640693 0.345080
vt 0.605879 0.348436
vt 0.570774 0.351336
vt 0.403060 0.353771
vt 0.236726 0.350519
vt 0.201661 0.347204
vt 0.166937 0.343353
vt 0.032342 0.326949
vt 0.024900 0.413140
vt 0.161673 0.419748
vt 0.197159 0.421218
vt 0.232914 0.422415
vt 0.403099 0.423756
vt 0.573494 0.423101
vt 0.609330 0.422294
vt 0.644865 0.421319
vt 0.781346 0.416082
vt 0.762272 0.245672
vt 0.630544 0.269218
vt 0.597659 0.275213
vt 0.564544 0.280319
vt 0.403007 0.282735
vt 0.243900 0.279339
vt 0.211222 0.273479
vt 0.178240 0.267190
vt 0.047672 0.242083
vt 0.402669 0.720236
vt 0.545469 0.723915
vt 0.536939 0.787048
vt 0.402522 0.795444
vt 0.258533 0.721231
vt 0.266217 0.785712
vt 0.404205 0.208745
vt 0.542752 0.216889
vt 0.553813 0.282276
vt 0.265608 0.213325
vt 0.254423 0.281389
vt 0.245181 0.565766
vt 0.243421 0.494499
vt 0.562239 0.494862
vt 0.560200 0.565998
vt 0.552927 0.636282
vt 0.401744 0.632924
vt 0.252963 0.633325
vt 0.561940 0.423297
vt 0.244429 0.422777
vt 0.248028 0.351455
vt 0.559419 0.352081
vt 0.605544 0.972111
vt 0.081289 0.862010
vt 0.728536 0.132995
vt 0.203365 0.024834
vn -0.066950 -0.994967 0.074555
vn -0.376458 -0.925016 0.051229
vn -0.382683 -0.923880 0.000000
vn -0.071241 -0.997459 0.000000
vn -0.925016 -0.376457 0.051229
vn -0.991226 -0.111115 0.071590
vn -0.993074 -0.117491 0.000000
vn -0.923880 -0.382683 0.000000
vn 0.000000 -0.382684 0.923880
vn 0.000000 -0.382684 0.923880
vn 0.046098 -0.377127 0.925014
vn 0.154613 -0.267235 0.951147
vn 0.000000 -0.923879 0.382684
vn 0.000000 -0.996894 0.078755
vn 0.066950 -0.994967 0.074555
vn 0.046098 -0.925013 0.377128
vn -0.996894 0.000000 0.078755
vn -0.923880 0.000000 0.382683
vn -0.924612 0.078597 0.372713
vn -0.991226 0.111115 0.071590
vn -0.382684 0.000000 0.923880
vn -0.120942 0.000000 0.992660
vn -0.154613 0.267235 0.951147
vn -0.372713 0.078597 0.924612
vn 0.991226 -0.111115 0.071590
vn 0.925016 -0.376457 0.051229
vn 0.923880 -0.382683 0.000000
vn 0.993074 -0.117491 0.000000
vn 0.376458 -0.925016 0.051229
vn 0.071241 -0.997459 0.000000
vn 0.382683 -0.923880 0.000000
vn 0.120942 0.000000 0.992660
vn 0.382684 0.000000 0.923880
vn 0.372713 0.078597 0.924612
vn 0.154613 0.267235 0.951147
vn 0.923880 0.000000 0.382683
vn 0.996894 0.000000 0.078755
vn 0.991226 0.111115 0.071590
vn 0.924612 0.078597 0.372713
vn -0.925016 0.376457 0.051229
vn -0.923880 0.382683 0.000000
vn -0.993074 0.117491 0.000000
vn -0.376457 0.925017 0.051229
vn -0.066950 0.994967 0.074555
vn -0.071240 0.997459 0.000000
vn -0.382683 0.923880 0.000000
vn 0.000000 0.996894 0.078755
vn 0.000000 0.923880 0.382683
vn 0.046098 0.925014 0.377127
vn 0.066950 0.994967 0.074555
vn 0.000000 0.382684 0.923880
vn 0.000000 0.382684 0.923880
vn 0.046098 0.377127 0.925014
vn 0.376457 0.925017 0.051229
vn 0.382683 0.923880 0.000000
vn 0.071240 0.997459 0.000000
vn 0.925016 0.376457 0.051229
vn 0.993074 0.117491 0.000000
vn 0.923880 0.382683 0.000000
vn 0.000000 0.000000 1.000000
vn 0.000000 0.000000 1.000000
vn 0.000000 0.000000 1.000000
vn 0.000000 0.000000 1.000000
vn 0.000000 1.000000 0.000000
vn 0.000000 -1.000000 0.000000
vn 1.000000 0.000000 0.000000
vn -1.000000 0.000000 0.000000
vn -0.924612 -0.078597 0.372713
vn -0.887919 -0.325269 0.325270
vn -0.046098 -0.925013 0.377128
vn -0.325269 -0.887919 0.325270
vn -0.046098 -0.377127 0.925014
vn -0.154613 -0.267235 0.951147
vn -0.372713 -0.078597 0.924612
vn -0.325270 -0.325269 0.887919
vn 0.325269 -0.887919 0.325270
vn 0.924612 -0.078597 0.372713
vn 0.887919 -0.325269 0.325269
vn 0.372713 -0.078597 0.924612
vn 0.325270 -0.325269 0.887919
vn -0.046098 0.925014 0.377127
vn -0.325269 0.887919 0.325269
vn -0.887919 0.325269 0.325269
vn -0.046098 0.377127 0.925014
vn -0.325270 0.325269 0.887919
vn 0.887919 0.325269 0.325270
vn 0.325269 0.887919 0.325269
vn 0.325270 0.325269 0.887919
vn -0.996894 0.000000 0.078755
vn -1.000000 0.000000 0.000000
vn -0.923880 0.000000 0.382683
vn -0.382684 0.000000 0.923880
vn -0.382684 0.000000 0.923880
vn 0.000000 0.000000 1.000000
vn 0.000000 0.000000 1.000000
vn 0.000000 0.000000 1.000000
vn 0.000000 0.000000 1.000000
vn 0.382684 0.000000 0.923880
vn 0.382684 0.000000 0.923880
vn 0.996894 0.000000 0.078755
vn 0.923880 0.000000 0.382683
vn 1.000000 0.000000 0.000000
vn 0.000000 0.000000 1.000000
vn 0.000000 0.000000 1.000000
vn 0.000000 0.000000 1.000000
vn 0.000000 0.000000 1.000000
vn -1.000000 0.000000 0.000000
vn -0.996894 0.000000 0.078755
vn -0.996894 0.000000 0.078755
vn -1.000000 0.000000 0.000000
vn -0.923880 0.000000 0.382683
vn -0.923880 0.000000 0.382683
vn -0.382684 0.000000 0.923880
vn -0.382684 0.000000 0.923880
vn -0.382684 0.000000 0.923880
vn -0.382684 0.000000 0.923880
vn 0.000000 0.000000 1.000000
vn 0.000000 0.000000 1.000000
vn 0.000000 0.000000 1.000000
vn 0.000000 0.000000 1.000000
vn 0.000000 0.000000 1.000000
vn 0.000000 0.000000 1.000000
vn 0.382684 0.000000 0.923880
vn 0.382684 0.000000 0.923880
vn 0.382684 0.000000 0.923880
vn 0.382684 0.000000 0.923880
vn 0.923880 0.000000 0.382683
vn 0.996894 0.000000 0.078755
vn 0.996894 0.000000 0.078755
vn 0.923880 0.000000 0.382683
vn 1.000000 0.000000 0.000000
vn 1.000000 0.000000 0.000000
vn -1.000000 0.000000 0.000000
vn -0.996894 0.000000 0.078755
vn -0.923880 0.000000 0.382683
vn -0.382683 0.000000 0.923880
vn -0.120942 0.000000 0.992660
vn 0.000000 0.000000 1.000000
vn 0.000000 0.000000 1.000000
vn 0.120942 0.000000 0.992660
vn 0.382683 0.000000 0.923880
vn 0.923880 0.000000 0.382683
vn 0.996894 0.000000 0.078755
vn 1.000000 0.000000 0.000000
vn 0.000000 0.000000 1.000000
vn 0.000000 0.000000 1.000000
vn 0.000000 0.000000 1.000000
vn 0.996894 0.000000 0.078755
vn 1.000000 0.000000 0.000000
vn 0.923880 0.000000 0.382683
vn 0.382684 0.000000 0.923880
vn 0.382684 0.000000 0.923880
vn 0.000000 0.000000 1.000000
vn 0.000000 0.000000 1.000000
vn 0.000000 0.000000 1.000000
vn -0.382684 0.000000 0.923880
vn -0.382684 0.000000 0.923880
vn -0.996894 0.000000 0.078755
vn -0.923880 0.000000 0.382683
vn -1.000000 0.000000 0.000000
vn -1.000000 0.000000 0.000000
vn -0.996894 0.000000 0.078755
vn -0.923880 0.000000 0.382683
vn -0.382684 0.000000 0.923880
vn -0.382684 0.000000 0.923880
vn 0.000000 0.000000 1.000000
vn 0.000000 0.000000 1.000000
vn 0.000000 0.000000 1.000000
vn 0.382684 0.000000 0.923880
vn 0.382684 0.000000 0.923880
vn 0.923880 0.000000 0.382683
vn 0.996894 0.000000 0.078755
vn 1.000000 0.000000 0.000000
vn 0.000000 1.000000 0.000000
vn 0.000000 1.000000 0.000000
vn 0.000000 1.000000 0.000000
vn 0.000000 1.000000 0.000000
vn -1.000000 0.000000 0.000000
vn -1.000000 0.000000 0.000000
vn -1.000000 0.000000 0.000000
vn -1.000000 0.000000 0.000000
vn 0.000000 -1.000000 0.000000
vn 0.000000 -1.000000 0.000000
vn 0.000000 -1.000000 0.000000
vn 0.000000 -1.000000 0.000000
vn 0.000000 1.000000 0.000000
vn 0.000000 1.000000 0.000000
vn 0.000000 -1.000000 0.000000
vn 0.000000 -1.000000 0.000000
vn 1.000000 0.000000 0.000000
vn 1.000000 0.000000 0.000000
vn 1.000000 0.000000 0.000000
vn 1.000000 0.000000 0.000000
vn 0.000000 1.000000 0.000000
vn 0.000000 1.000000 0.000000
vn 0.000000 1.000000 0.000000
vn 0.000000 1.000000 0.000000
vn -1.000000 0.000000 0.000000
vn -1.000000 0.000000 0.000000
vn -1.000000 0.000000 0.000000
vn -1.000000 0.000000 0.000000
vn 0.000000 1.000000 0.000000
vn 0.000000 1.000000 0.000000
vn 1.000000 0.000000 0.000000
vn 1.000000 0.000000 0.000000
vn 1.000000 0.000000 0.000000
vn 1.000000 0.000000 0.000000
vn 1.000000 0.000000 0.000000
vn 1.000000 0.000000 0.000000
vn 1.000000 0.000000 0.000000
vn 1.000000 0.000000 0.000000
vn -1.000000 0.000000 0.000000
vn -1.000000 0.000000 0.000000
vn -1.000000 0.000000 0.000000
vn -1.000000 0.000000 0.000000
vn 0.000000 -1.000000 0.000000
vn 0.000000 -1.000000 -0.000000
vn 0.000000 -1.000000 -0.000000
vn 0.000000 -1.000000 0.000000
vn -1.000000 0.000000 0.000000
vn -1.000000 0.000000 0.000000
vn 0.000000 -1.000000 -0.000000
vn 0.000000 -1.000000 -0.000000
vn 1.000000 0.000000 0.000000
vn 1.000000 0.000000 0.000000
vn -1.000000 0.000000 0.000000
vn -1.000000 0.000000 0.000000
vn 1.000000 0.000000 0.000000
vn 1.000000 0.000000 0.000000
vn 1.000000 0.000000 0.000000
vn 1.000000 0.000000 0.000000
vn -1.000000 0.000000 0.000000
vn -1.000000 0.000000 0.000000
s 1
g pCube1
usemtl initialShadingGroup
f 2/2/1 1/21/2 32/137/3 31/16/4
s 2
f 1/21/5 6/18/6 33/1/7 32/35/8
s 3
f 53/54/9 54/55/10 11/26/11 10/12/12
s 1
f 54/55/13 55/56/14 12/4/15 11/26/16
s 2
f 67/68/17 68/69/18 15/28/19 14/19/20
s 3
f 68/69/21 69/70/22 16/8/23 15/28/24
s 7
f 8/6/25 7/24/26 35/136/27 34/17/28
s 1
f 7/24/29 12/4/15 36/5/30 35/36/31
s 3
f 71/72/32 72/73/33 23/32/34 22/9/35
s 7
f 72/73/36 73/74/37 24/10/38 23/32/39
s 2
f 14/19/20 13/27/40 26/135/41 25/20/42
s 10
f 13/27/43 18/13/44 27/7/45 26/33/46
f 50/50/47 51/51/48 21/31/49 20/14/50
s 3
f 51/51/51 52/52/52 22/9/35 21/31/53
s 10
f 20/14/50 19/30/54 29/134/55 28/15/56
s 7
f 19/30/57 24/10/38 30/11/58 29/34/59
s 13
f 107/115/60 108/112/61 109/113/62 110/114/63
s 10
f 49/49/64 50/50/47 20/14/50 28/15/56
s 1
f 55/56/14 56/57/65 36/5/30 12/4/15
s 7
f 73/74/37 74/75/66 30/11/58 24/10/38
s 2
f 66/67/67 67/68/17 14/19/20 25/20/42
f 5/23/68 6/18/6 1/21/5 37/37/69
s 1
f 1/21/2 2/2/1 3/22/70 37/37/71
s 3
f 3/22/72 4/3/73 5/23/74 37/37/75
s 1
f 11/26/16 12/4/15 7/24/29 38/38/76
s 7
f 7/24/26 8/6/25 9/25/77 38/38/78
s 3
f 9/25/79 10/12/12 11/26/11 38/38/80
s 10
f 17/29/81 18/13/44 13/27/43 39/39/82
s 2
f 13/27/40 14/19/20 15/28/19 39/39/83
s 3
f 15/28/24 16/8/23 17/29/84 39/39/85
s 7
f 23/32/39 24/10/38 19/30/57 40/40/86
s 10
f 19/30/54 20/14/50 21/31/49 40/40/87
s 3
f 21/31/53 22/9/35 23/32/34 40/40/88
s 2
f 33/1/7 6/18/6 105/110/89 106/111/90
f 6/18/6 5/23/68 104/109/91 105/110/89
s 3
f 5/23/74 4/3/73 103/108/92 104/109/93
s 14
f 113/120/94 114/107/95 115/118/96 116/119/97
s 3
f 10/12/12 9/25/79 101/105/98 102/106/99
s 7
f 9/25/77 8/6/25 100/104/100 101/105/101
f 8/6/25 34/17/28 99/103/102 100/104/100
s 10
f 18/13/44 50/50/47 49/49/64 27/7/45
f 18/13/44 17/29/81 51/51/48 50/50/47
s 3
f 17/29/84 16/8/23 52/52/52 51/51/51
s 13
f 111/116/103 108/112/61 107/115/60 112/117/104
s 14
f 117/121/105 115/118/96 114/107/95 118/122/106
s 3
f 4/3/73 3/22/72 54/55/10 53/54/9
s 1
f 3/22/70 2/2/1 55/56/14 54/55/13
f 2/2/1 31/16/4 56/57/65 55/56/14
s 2
f 41/41/107 42/42/108 81/83/109 82/84/110
f 42/42/108 43/43/111 80/82/112 81/83/109
s 3
f 43/43/113 44/44/114 79/81/115 80/82/116
s 14
f 119/124/117 120/53/118 121/80/119 122/123/120
f 123/126/121 121/80/119 120/53/118 124/125/122
s 3
f 45/45/123 46/46/124 77/78/125 78/79/126
s 7
f 46/46/127 47/47/128 76/77/129 77/78/130
f 47/47/128 48/48/131 75/76/132 76/77/129
s 2
f 57/58/133 58/59/134 67/68/17 66/67/67
f 58/59/134 59/60/135 68/69/18 67/68/17
s 3
f 59/60/136 60/61/137 69/70/22 68/69/21
f 60/61/137 61/62/138 70/71/139 69/70/22
f 71/72/32 70/71/139 61/62/138 62/63/140
f 62/63/140 63/64/141 72/73/33 71/72/32
s 7
f 63/64/142 64/65/143 73/74/37 72/73/36
f 64/65/143 65/66/144 74/75/66 73/74/37
f 76/77/129 75/76/132 65/66/144 64/65/143
f 77/78/130 76/77/129 64/65/143 63/64/142
s 3
f 78/79/126 77/78/125 63/64/141 62/63/140
s 14
f 126/127/145 125/128/146 121/80/119 123/126/121
f 122/123/120 121/80/119 125/128/146 127/129/147
s 3
f 80/82/116 79/81/115 60/61/137 59/60/136
s 2
f 81/83/109 80/82/112 59/60/135 58/59/134
f 82/84/110 81/83/109 58/59/134 57/58/133
s 7
f 97/101/148 98/102/149 48/48/131 47/47/128
f 96/100/150 97/101/148 47/47/128 46/46/127
s 3
f 95/99/151 96/100/152 46/46/124 45/45/123
s 14
f 120/53/118 128/98/153 129/130/154 124/125/122
f 130/131/155 128/98/153 120/53/118 119/124/117
s 3
f 93/96/156 94/97/157 44/44/114 43/43/113
s 2
f 92/95/158 93/96/159 43/43/111 42/42/108
f 91/94/160 92/95/158 42/42/108 41/41/107
f 90/93/161 89/92/162 92/95/158 91/94/160
f 89/92/162 88/91/163 93/96/159 92/95/158
s 3
f 88/91/164 87/90/165 94/97/157 93/96/156
s 14
f 132/132/166 131/89/167 128/98/153 130/131/155
f 129/130/154 128/98/153 131/89/167 133/133/168
s 3
f 86/88/169 85/87/170 96/100/152 95/99/151
s 7
f 85/87/171 84/86/172 97/101/148 96/100/150
f 84/86/172 83/85/173 98/102/149 97/101/148
f 100/104/100 99/103/102 83/85/173 84/86/172
f 101/105/101 100/104/100 84/86/172 85/87/171
s 3
f 102/106/99 101/105/98 85/87/170 86/88/169
s 14
f 133/133/168 131/89/167 114/107/95 113/120/94
f 118/122/106 114/107/95 131/89/167 132/132/166
s 3
f 104/109/93 103/108/92 87/90/165 88/91/164
s 2
f 105/110/89 104/109/91 88/91/163 89/92/162
f 106/111/90 105/110/89 89/92/162 90/93/161
s 20
f 70/71/174 71/72/175 109/113/176 108/112/177
s off
f 71/72/178 22/9/179 110/114/180 109/113/181
s 21
f 22/9/182 52/52/183 107/115/184 110/114/185
s 20
f 69/70/186 70/71/174 108/112/177 111/116/187
s 21
f 52/52/183 16/8/188 112/117/189 107/115/184
s off
f 16/8/190 69/70/191 111/116/192 112/117/193
s 22
f 53/54/194 10/12/195 116/119/196 115/118/197
s 23
f 10/12/198 102/106/199 113/120/200 116/119/201
s 22
f 4/3/202 53/54/194 115/118/197 117/121/203
s 24
f 103/108/204 4/3/205 117/121/206 118/122/207
f 79/81/208 44/44/209 119/124/210 122/123/211
s 23
f 45/45/212 78/79/213 123/126/214 124/125/215
s 27
f 62/63/216 61/62/217 125/128/218 126/127/219
s 23
f 78/79/213 62/63/220 126/127/221 123/126/214
s 27
f 61/62/217 60/61/222 127/129/223 125/128/218
s 24
f 60/61/224 79/81/208 122/123/211 127/129/225
s 23
f 95/99/226 45/45/212 124/125/215 129/130/227
s 24
f 44/44/209 94/97/228 130/131/229 119/124/210
f 94/97/228 87/90/230 132/132/231 130/131/229
s 23
f 86/88/232 95/99/226 129/130/227 133/133/233
f 102/106/199 86/88/232 133/133/233 113/120/200
s 24
f 87/90/230 103/108/204 118/122/207 132/132/231
